<mxfile host="app.diagrams.net" modified="2024-04-16T22:10:53.273Z" agent="Mozilla/5.0 (Windows NT 10.0; Win64; x64) AppleWebKit/537.36 (KHTML, like Gecko) Chrome/121.0.0.0 Safari/537.36 OPR/107.0.0.0" version="24.2.5" etag="C_0qSq6_yh_OYH1ec82a" type="github">
  <diagram name="PÃ¡gina-1" id="2nRB4DtyJoJPSNkihB7b">
    <mxGraphModel>
      <root>
        <mxCell id="0" />
        <mxCell id="1" parent="0" />
      </root>
    </mxGraphModel>
  </diagram>
</mxfile>
